<?xml version="1.0" encoding="UTF-8" standalone="no"?>
<!-- Created with Inkscape (http://www.inkscape.org/) -->

<svg
   xmlns:dc="http://purl.org/dc/elements/1.1/"
   xmlns:cc="http://creativecommons.org/ns#"
   xmlns:rdf="http://www.w3.org/1999/02/22-rdf-syntax-ns#"
   xmlns:svg="http://www.w3.org/2000/svg"
   xmlns="http://www.w3.org/2000/svg"
   xmlns:sodipodi="http://sodipodi.sourceforge.net/DTD/sodipodi-0.dtd"
   xmlns:inkscape="http://www.inkscape.org/namespaces/inkscape"
   version="1.1"
   id="svg4555"
   width="400"
   height="400"
   viewBox="0 0 400 400"
   sodipodi:docname="logo_earthshare.svg"
   inkscape:version="0.92.1 r15371"
   inkscape:export-filename="/home/soft/Pictures/logo_earthnation.png"
   inkscape:export-xdpi="200"
   inkscape:export-ydpi="200">
  <metadata
     id="metadata4561">
    <rdf:RDF>
      <cc:Work
         rdf:about="">
        <dc:format>image/svg+xml</dc:format>
        <dc:type
           rdf:resource="http://purl.org/dc/dcmitype/StillImage" />
        <dc:title></dc:title>
      </cc:Work>
    </rdf:RDF>
  </metadata>
  <defs
     id="defs4559" />
  <sodipodi:namedview
     pagecolor="#ffffff"
     bordercolor="#666666"
     borderopacity="1"
     objecttolerance="10"
     gridtolerance="10"
     guidetolerance="10"
     inkscape:pageopacity="0"
     inkscape:pageshadow="2"
     inkscape:window-width="1920"
     inkscape:window-height="1009"
     id="namedview4557"
     showgrid="false"
     inkscape:zoom="0.70710678"
     inkscape:cx="79.58268"
     inkscape:cy="-41.068694"
     inkscape:window-x="0"
     inkscape:window-y="34"
     inkscape:window-maximized="1"
     inkscape:current-layer="svg4555" />
  <rect
     style="opacity:1;fill:#3ab3eb;fill-opacity:1;stroke:none;stroke-width:3.41833353;stroke-miterlimit:4;stroke-dasharray:none;stroke-opacity:1"
     id="rect5307-0"
     width="400"
     height="400"
     x="0.14825189"
     y="-1.9158732"
     inkscape:export-xdpi="200"
     inkscape:export-ydpi="200" />
  <path
     style="fill:#2e8eb9;fill-opacity:1;stroke:none;stroke-width:1.10280466px;stroke-linecap:butt;stroke-linejoin:miter;stroke-opacity:1"
     d="M 296.30154,44.389907 400.44641,138.17329 400.26503,262.85881 211.57115,261.0404 Z"
     id="path5332-9"
     inkscape:connector-curvature="0"
     sodipodi:nodetypes="ccccc"
     inkscape:export-xdpi="200"
     inkscape:export-ydpi="200" />
  <circle
     style="opacity:1;fill:#3ab3eb;fill-opacity:1;stroke:none;stroke-width:4.52425766;stroke-miterlimit:4;stroke-dasharray:none;stroke-opacity:1"
     id="path5309-3"
     cx="188.32791"
     cy="181.60542"
     r="172.67322"
     inkscape:export-xdpi="200"
     inkscape:export-ydpi="200" />
  <path
     style="fill:#ffffff;fill-opacity:1;stroke-width:1.65887046"
     d="M 160.32447,352.9276 C 134.16362,347.76828 108.86367,337.57128 88.78964,324.09592 75.10459,314.90937 51.8569,291.43994 42.83517,277.70311 16.56225,237.69903 7.3187903,190.34465 16.88567,144.7637 24.35579,109.17273 40.95602,79.903257 68.3213,54.072567 102.20764,22.086537 140.97313,6.8378768 188.52527,6.7895768 c 24.68614,-0.025 37.1615,2.1398302 59.67203,10.3551602 56.40838,20.58649 99.33023,71.31519 110.45425,130.544193 4.36971,23.26618 2.68662,59.35525 -3.78119,81.07751 -17.70523,59.46312 -63.98795,104.2585 -124.58231,120.57869 -9.80841,2.64177 -18.82807,3.54083 -39.27447,3.91484 -14.59806,0.26702 -28.40816,0.11743 -30.68911,-0.33237 z m 52.52339,-28.77612 c 12.4829,-15.45307 17.15724,-25.42847 17.11228,-36.51896 -0.0439,-10.84947 -1.67707,-13.2138 -16.55181,-23.96286 -5.93046,-4.28556 -14.70174,-11.54352 -19.49173,-16.12876 -7.87447,-7.53789 -8.70908,-9.02325 -8.70908,-15.49995 0,-6.34394 0.78482,-7.83494 6.86222,-13.03697 6.56562,-5.61992 6.77381,-6.08723 4.81682,-10.81182 -2.91992,-7.04934 -17.31816,-20.17899 -43.82968,-39.96803 -30.86844,-23.04117 -37.37281,-29.83276 -46.84524,-48.91404 l -7.79548,-15.70318 1.52143,-17.599403 c 0.83676,-9.67965 1.04836,-18.36477 0.47021,-19.30026 -0.57816,-0.93546 -4.33822,-2.07136 -8.3557,-2.52419 -7.23384,-0.81534 -7.40954,-0.71197 -18.16254,10.68678 -19.32619,20.48679 -33.16157,46.881273 -38.67697,73.786153 -2.94657,14.37373 -3.46707,48.16726 -0.90176,58.54513 0.90212,3.64951 2.38843,10.34184 3.30287,14.87185 4.1013,20.31687 20.41548,48.0039 39.69576,67.36831 31.06865,31.20416 67.57214,46.4673 109.48352,45.77809 l 17.34473,-0.28522 z M 341.12416,203.6177 c 2.86381,-15.80649 1.35838,-45.46527 -3.18613,-62.77142 -8.60711,-32.777 -29.65138,-64.037163 -57.12838,-84.861163 -12.43065,-9.42083 -39.29057,-22.35178 -54.92114,-26.44024 -6.3654,-1.66498 -17.18953,-3.05725 -24.05362,-3.09395 l -12.48018,-0.0666 -0.48838,6.63547 c -0.26983,3.66634 0.49763,7.98255 1.71516,9.64591 2.0788,2.84003 2.5047,2.72264 7.52348,-2.07357 3.97376,-3.79753 6.87255,-5.08403 11.45559,-5.08403 5.19934,0 7.29011,1.23277 13.70078,8.07831 5.60478,5.98501 9.92938,8.83315 16.68892,10.9912 23.1766,7.39936 27.96163,21.22772 11.54267,33.35729 -6.41457,4.73879 -9.96469,11.471503 -18.77083,35.598473 -7.92978,21.72597 -18.93763,32.48828 -31.34058,30.64154 -9.35826,-1.39335 -7.99182,2.47706 4.07756,11.54976 15.95461,11.99331 18.67394,13.02212 33.48091,12.66698 7.19958,-0.1727 13.78438,-0.74304 14.6329,-1.26747 0.84853,-0.5244 4.95956,-0.4411 9.13565,0.18515 6.03315,0.90474 9.39038,2.83864 16.34334,9.41446 7.01314,6.63273 10.66094,8.71993 18.37301,10.51266 5.2924,1.23027 10.17233,1.89705 10.84431,1.48173 2.37083,-1.46525 21.20601,9.37367 24.84712,14.29855 2.02907,2.74447 4.1767,4.42491 4.77252,3.73437 0.59582,-0.69055 2.05172,-6.60054 3.23532,-13.13331 z"
     id="path5260-6"
     inkscape:connector-curvature="0"
     sodipodi:nodetypes="csssscssscscscssssssscccssssssscscscccccscssccscssccccccccc"
     inkscape:export-xdpi="200"
     inkscape:export-ydpi="200" />
  <rect
     style="opacity:1;fill:#ffffff;fill-opacity:1;stroke:none;stroke-width:3.52095795;stroke-miterlimit:4;stroke-dasharray:none;stroke-opacity:1"
     id="rect5213-6-0"
     width="399.97623"
     height="135.43442"
     x="0.17202508"
     y="262.64975"
     inkscape:export-xdpi="200"
     inkscape:export-ydpi="200" />
  <text
     xml:space="preserve"
     style="font-style:normal;font-variant:normal;font-weight:bold;font-stretch:normal;font-size:53.73802567px;line-height:1.25;font-family:ubuntu;-inkscape-font-specification:'ubuntu Bold';letter-spacing:0px;word-spacing:0px;fill:#3ab3eb;fill-opacity:1;stroke:none;stroke-width:1.34345067"
     x="21.23007"
     y="318.9072"
     id="text5205-2-6"
     inkscape:export-xdpi="200"
     inkscape:export-ydpi="200"><tspan
       sodipodi:role="line"
       id="tspan5203-9-2"
       x="21.23007"
       y="318.9072"
       style="font-style:normal;font-variant:normal;font-weight:bold;font-stretch:normal;font-family:ubuntu;-inkscape-font-specification:'ubuntu Bold';fill:#3ab3eb;fill-opacity:1;stroke-width:1.34345067">EarthShare</tspan><tspan
       sodipodi:role="line"
       x="21.23007"
       y="386.07974"
       id="tspan5207-1-6"
       style="font-style:normal;font-variant:normal;font-weight:bold;font-stretch:normal;font-family:ubuntu;-inkscape-font-specification:'ubuntu Bold';fill:#3ab3eb;fill-opacity:1;stroke-width:1.34345067" /></text>
  <text
     xml:space="preserve"
     style="font-style:normal;font-variant:normal;font-weight:normal;font-stretch:normal;font-size:51.54934311px;line-height:1.25;font-family:ubuntu;-inkscape-font-specification:ubuntu;letter-spacing:0px;word-spacing:0px;fill:#3ab3eb;fill-opacity:1;stroke:none;stroke-width:1.2887336"
     x="90.803009"
     y="369.50912"
     id="text5211-2-1"
     inkscape:export-xdpi="200"
     inkscape:export-ydpi="200"><tspan
       sodipodi:role="line"
       id="tspan5209-7-8"
       x="90.803009"
       y="369.50912"
       style="fill:#3ab3eb;fill-opacity:1;stroke-width:1.2887336">Network</tspan></text>
</svg>
